<?xml version="1.0" ?><svg style="enable-background:new 0 0 512 512;" version="1.1" viewBox="0 0 512 512" xml:space="preserve" xmlns="http://www.w3.org/2000/svg" xmlns:xlink="http://www.w3.org/1999/xlink"><g id="outerdark"><path d="M256.5,20C126.4,20,21,125.4,21,255.5S126.4,491,256.5,491S492,385.6,492,255.5S386.6,20,256.5,20z    M256,460.5c-112.9,0-204.5-91.6-204.5-204.5S143.1,51.5,256,51.5S460.5,143.1,460.5,256S368.9,460.5,256,460.5z" style="fill:#FF680D;"/></g><g id="outerlight"><path d="M423.1,89l-22.4,22.4c37,37,59.8,88.1,59.8,144.6c0,112.9-91.6,204.5-204.5,204.5   c-56.4,0-107.6-22.9-144.6-59.8L90,422.1c92,92,241.1,92,333,0S515,181,423.1,89z" style="opacity:0.2;fill:#FFFFFF;"/></g><g id="innerdark"><circle cx="256" cy="256" r="180" style="fill:#FF680D;"/></g><g id="Soundcloud"><g><path d="M154.4,264.9c-0.4,0-0.8,0.3-0.8,0.8l-1.5,11.6l1.5,11.4c0.1,0.5,0.4,0.8,0.8,0.8    c0.4,0,0.8-0.3,0.8-0.8l0,0v0c0,0,0,0,0,0l1.8-11.4l-1.8-11.6C155.1,265.2,154.8,264.9,154.4,264.9z" style="fill:#E6E7E8;"/><path d="M162.9,258.5c-0.1-0.5-0.4-0.8-0.9-0.8c-0.4,0-0.8,0.4-0.9,0.8c0,0-2,18.7-2,18.7l2,18.3    c0.1,0.5,0.4,0.8,0.9,0.8c0.4,0,0.8-0.3,0.9-0.8l2.3-18.3L162.9,258.5z" style="fill:#E6E7E8;"/><path d="M195.1,241.3c-0.8,0-1.5,0.7-1.6,1.6l-1.6,34.4l1.6,22.2c0,0.9,0.7,1.6,1.6,1.6    c0.8,0,1.5-0.7,1.6-1.6v0l1.8-22.2l-1.8-34.4C196.7,242,196,241.3,195.1,241.3z" style="fill:#E6E7E8;"/><path d="M178.5,253.3c-0.6,0-1.2,0.5-1.2,1.2l-1.8,22.8l1.8,22c0.1,0.7,0.6,1.2,1.2,1.2    c0.6,0,1.2-0.5,1.2-1.2l2.1-22l-2.1-22.8C179.6,253.8,179.1,253.3,178.5,253.3z" style="fill:#E6E7E8;"/><path d="M212.1,301c1,0,1.9-0.8,1.9-1.9l1.6-21.8l-1.6-45.8c0-1.1-0.9-1.9-1.9-1.9c-1,0-1.9,0.8-1.9,1.9    c0,0-1.4,45.7-1.4,45.7l1.4,21.8C210.2,300.2,211,301,212.1,301z" style="fill:#E6E7E8;"/><path d="M246.8,301.1c1.4,0,2.6-1.2,2.6-2.6v0v0l1.1-21.2l-1.1-52.8c0-1.4-1.2-2.6-2.6-2.6    c-1.4,0-2.6,1.2-2.6,2.6l-1,52.8c0,0,1,21.2,1,21.2C244.2,299.9,245.3,301.1,246.8,301.1z" style="fill:#E6E7E8;"/><path d="M229.3,301c1.2,0,2.2-1,2.3-2.3v0l1.4-21.5l-1.4-46.1c0-1.3-1-2.3-2.3-2.3c-1.3,0-2.3,1-2.3,2.3    l-1.2,46.1l1.2,21.5C227,300,228,301,229.3,301z" style="fill:#E6E7E8;"/><path d="M186.8,300.8c0.7,0,1.3-0.6,1.4-1.4l2-22.2l-2-21.1c-0.1-0.8-0.7-1.4-1.4-1.4    c-0.8,0-1.4,0.6-1.4,1.4l-1.7,21.1l1.7,22.2C185.4,300.2,186,300.8,186.8,300.8z" style="fill:#E6E7E8;"/><path d="M170.2,299.6c0.5,0,1-0.4,1-1l2.2-21.4l-2.2-22.2c-0.1-0.6-0.5-1-1-1c-0.5,0-1,0.4-1,1    c0,0-1.9,22.2-1.9,22.2l1.9,21.3C169.2,299.2,169.7,299.6,170.2,299.6z" style="fill:#E6E7E8;"/><path d="M238,230.4c-1.4,0-2.4,1.1-2.5,2.5l-1.1,44.4l1.1,21.4c0,1.4,1.1,2.4,2.5,2.4    c1.4,0,2.4-1.1,2.5-2.5v0l1.2-21.4l-1.2-44.4C240.4,231.5,239.4,230.4,238,230.4z" style="fill:#E6E7E8;"/><path d="M203.6,301c0.9,0,1.7-0.8,1.8-1.7l1.7-22.1l-1.7-42.2c0-1-0.8-1.7-1.8-1.7c-0.9,0-1.7,0.8-1.8,1.7    c0,0-1.5,42.2-1.5,42.2l1.5,22.1C201.9,300.3,202.6,301,203.6,301z" style="fill:#E6E7E8;"/><path d="M222.8,299L222.8,299l1.5-21.7l-1.5-47.3c0-1.2-1-2.1-2.1-2.1c-1.1,0-2.1,0.9-2.1,2.1l-1.3,47.3    l1.3,21.7c0,1.2,1,2.1,2.1,2.1C221.8,301,222.7,300.1,222.8,299L222.8,299z" style="fill:#E6E7E8;"/><path d="M334.4,250c-3.5,0-6.9,0.7-9.9,2c-2-23.1-21.4-41.1-45-41.1c-5.8,0-11.4,1.1-16.4,3.1    c-1.9,0.7-2.4,1.5-2.5,3v81.2c0,1.6,1.2,2.9,2.8,3c0.1,0,70.5,0,70.9,0c14.1,0,25.6-11.5,25.6-25.6C360,261.4,348.5,250,334.4,250    z" style="fill:#E6E7E8;"/><path d="M255.5,216.8c-1.5,0-2.8,1.3-2.8,2.8l-1.2,57.6l1.2,20.9c0,1.5,1.3,2.8,2.8,2.8    c1.5,0,2.8-1.3,2.8-2.8v0l1.3-20.9l-1.3-57.6C258.3,218.1,257,216.8,255.5,216.8z" style="fill:#E6E7E8;"/></g></g><g id="innerlight"><path d="M128.1,382.6c-70.3-70.3-70.3-184.3,0-254.6s184.3-70.3,254.6,0" style="opacity:0.2;fill:#FFFFFF;"/><g/><g/><g/><g/><g/><g/></g></svg>